<svg xmlns="http://www.w3.org/2000/svg" width="36" height="44"><defs><style>.cls-1{fill:#2e2d2a;fill-rule:evenodd}</style></defs><path class="cls-1" d="M24.723 32.847c.054-.34-2.91-.686-2.91-1.041V14.6c0-3.645.045-5.6-3.6-5.6h-.019c-3.645 0-3.6 1.955-3.6 5.6v17.206c0 .355-2.964.7-2.91 1.041-2.8 0-6.09-4.255-6.09-7.041V10.6c0-5.3 7.3-10.6 12.6-10.6h.019c5.3 0 12.6 5.3 12.6 10.6v15.206c0 2.786-2.578 7.041-6.09 7.041z"/><path d="M24.723 32.847a6.616 6.616 0 0 0 .09-1.041V12.6a6.6 6.6 0 0 0-6.6-6.6h-.019a6.6 6.6 0 0 0-6.6 6.6v19.206a6.616 6.616 0 0 0 .09 1.041 9.563 9.563 0 0 1-3.09-7.041V12.6a9.6 9.6 0 0 1 9.6-9.6h.019a9.6 9.6 0 0 1 9.6 9.6v13.206a9.563 9.563 0 0 1-3.09 7.041z" fill="#fff" fill-rule="evenodd"/><rect y="13.406" width="36" height="30" rx="6" ry="6" fill="#2e2d2a"/><rect x="3" y="16.406" width="30" height="24" rx="4" ry="4" fill="#fff"/><path fill="#24afff" d="M3 19.406h30v18H3z"/><path class="cls-1" d="M21.024 31.226v2.328c0 1.05-1.992 1.9-3.088 1.9s-2.911-.733-2.911-1.9v-2.3c-1.688-.729-2.059-2.406-2.059-4.361a4.814 4.814 0 0 1 5.02-4.541 4.857 4.857 0 0 1 5.044 4.568c0 1.933-.345 3.565-2.006 4.306z"/><path d="M19 30.33v1.595a1.227 1.227 0 0 1-1.025 1.373l-.067.046A1.2 1.2 0 0 1 17 31.925v-1.578a3.388 3.388 0 0 1-2.031-2.878 3 3 0 0 1 6 0A3.357 3.357 0 0 1 19 30.33z" fill="#d9e2e7" fill-rule="evenodd"/></svg>