<svg xmlns="http://www.w3.org/2000/svg" preserveAspectRatio="xMidYMid" width="102.03" height="21.593"><defs><style>.cls-1{fill:#3d3d3d;fill-rule:evenodd}</style></defs><path d="M3.03 7.012v11.2l-3.019-2.1v-10.5L8.717.011l2.957 1.704L3.03 7.012zm11.916-3.538l3.106 1.915-12.034 7.223v-3.5l8.928-5.638zm3.138 12.727l-9.367 5.397-2.699-1.986v-3.5l12.066-7.108v7.197zm83.883-3.725h-6.052c0 1.306.967 2.151 2.487 2.151.888 0 1.2-.498 1.573-1.063h2.003c-.506 1.228-1.51 2.965-3.618 2.965-2.824.022-3.776-1.796-3.972-2.214-.28-.523-.421-1.704-.421-2.541 0-1.592.539-2.733 1.3-3.361.77-.638 1.791-.859 2.7-.859 1.109.01 2.047.273 2.813.875.779.613 1.248 1.456 1.261 2.529v1.518h-.074zm-2.557-2.72c-.375-.31-.856-.465-1.443-.465-.587 0-1.069.155-1.443.465-.369.326-.517.696-.554 1.333l4.049-.019c-.025-.637-.228-.988-.609-1.314zm-8.407 6.088c-.601.415-1.527.659-2.295.659-2.136 0-3.961-1.958-3.961-4.259 0-2.854 1.825-4.665 3.961-4.665.768 0 1.694.2 2.295.878V4.531h2.039v11.994h-2.039v-.681zm-2.295-6.292c-1.15 0-2.176 1.038-2.176 2.692 0 1.315 1.026 2.317 2.176 2.317 1.452 0 2.295-1.002 2.295-2.317 0-1.899-.866-2.692-2.295-2.692zm-9.137 7.043a4.492 4.492 0 0 1-4.487-4.496 4.492 4.492 0 0 1 4.487-4.497 4.492 4.492 0 0 1 4.489 4.497 4.492 4.492 0 0 1-4.489 4.496zm0-7.019c-1.189 0-2.153 1.026-2.153 2.48s.964 2.556 2.153 2.556c1.19 0 2.154-1.102 2.154-2.556s-.964-2.48-2.154-2.48zm-12.452-.899l-.009 7.877h-2.064V4.522h2.049l4.908 7.732.031-7.732h2.087v12.032h-1.999l-5.003-7.877zm-9.616 10.839l1.729-4.297-2.788-7.668h1.85l1.847 5.233 1.864-5.233h2.045l-4.408 11.965h-2.139zM52.407 14.6c.801 0 1.509-.364 1.942-.969l1.445 1.032c-.756 1.056-1.989 1.915-3.387 1.915-2.299 0-4.321-1.763-4.321-4.334 0-2.777 2.022-4.668 4.321-4.668 1.797 0 2.563.991 3.387 2.249l-1.445 1.032c-.433-.605-1.141-1.188-1.942-1.188-1.319 0-2.388 1.257-2.388 2.575 0 1.318 1.069 2.356 2.388 2.356zm-7.369-2.187c0-1.739-.269-2.256-1.2-2.256-1.269 0-1.756.886-1.756 2.256v4.121h-1.998V7.592h1.985v1.19s.269-1.209 1.885-1.209c1.163 0 2.131.44 2.606.985.426.501.551 2.672.551 3.667v4.309h-2.073v-4.121zm-7.991 3.477c-.603.416-1.293.665-2.062.665-2.138 0-4.274-1.982-4.274-4.527 0-2.508 2.136-4.512 4.274-4.512.769 0 1.459.249 2.062.665V7.56h2.02v8.995h-2.02v-.665zm-2.062-6.244c-1.151 0-2.128 1.066-2.128 2.382 0 1.315.977 2.381 2.128 2.381 1.151 0 2.083-1.066 2.083-2.381 0-1.316-.932-2.382-2.083-2.382zm-9.926-.108h4.004v1.997h-4.004v4.98H23.03V4.553h7.004v2.028h-4.975v2.957z" class="cls-1"/></svg>