<svg xmlns="http://www.w3.org/2000/svg" preserveAspectRatio="xMidYMid" width="46" height="10" viewBox="0 0 46 10"><defs><style>.cls-1{fill:#f0f0f0;fill-rule:evenodd}</style></defs><path d="M46.169 9.996h-1.976l-1.649-2.221-1.552 2.144v.062L39 10V0l1.992.008V7.43L41 7l3-4h2l-2.586 3.572 2.755 3.424zm-11.193-.007c-1.615 0-2.852-.796-2.987-2.563h-.017V5.498h.017c.135-1.767 1.372-2.563 2.987-2.563 1.618 0 2.843.8 2.992 2.563h.02v1.928h-.02c-.149 1.763-1.374 2.563-2.992 2.563zm1.02-3.901h-.007c-.049-.749-.455-1.089-.992-1.089-.535 0-.946.338-.99 1.089h-.006v.819h.006c.044.75.455 1.088.99 1.088.537 0 .943-.34.992-1.088h.007v-.819zm-8.02 3.901c-1.615 0-2.852-.796-2.987-2.563h-.017V5.498h.017c.135-1.767 1.372-2.563 2.987-2.563 1.618 0 2.843.8 2.992 2.563h.02v1.928h-.02c-.149 1.763-1.374 2.563-2.992 2.563zm1.02-3.901h-.007c-.049-.749-.455-1.089-.992-1.089-.535 0-.946.338-.99 1.089h-.006v.819h.006c.044.75.455 1.088.99 1.088.537 0 .943-.34.992-1.088h.007v-.819zm-9.473 3.334c-.5-.346-.9-.745-1.127-1.199-.069-.149-.13-.29-.186-.425a2.866 2.866 0 0 1-.129-.526c-.064-.395-.087-1.154-.087-2.277 0-1.142.023-1.905.087-2.292.069-.386.174-.698.315-.937.227-.453.627-.858 1.128-1.213.492-.359 1.106-.543 1.842-.552 1.117.011.731.005 2.662.005v1.985c-1.192-.005-3.251.037-2.104.059-.334.01-.622.043-.862.173a1.815 1.815 0 0 0-.592.507c-.184.211-.306.484-.366.817-.069.351-.103.48-.103 1.448 0 .967.034 1.06.103 1.402.06.342.182.619.367.831.15.203.347.376.592.502a1.6 1.6 0 0 0 .862.223c.798 0 2.103.004 2.103.004v2.032l-2.663-.001c-.736-.018-1.35-.206-1.842-.566zM12.51 7.578l-1.786 2.406H8.748l2.862-3.557-2.67-3.414h2.057l5.452 6.971h-2.057L12.51 7.578zm1.487-4.59h1.989v1.995h-1.989V2.988zM4.695 6.995H1.982v2.996H-.001V.003h4.723c2.303 0 3.331 1.328 3.331 3.312 0 1.998-1.042 3.68-3.358 3.68zm1.334-3.643c0-.602-.113-.871-.452-1.117-.338-.274-.752-.259-1.47-.259H1.982v2.942h2.156c.732 0 1.156.011 1.495-.262.325-.274.396-.702.396-1.304z" class="cls-1"/></svg>