<svg xmlns="http://www.w3.org/2000/svg" preserveAspectRatio="xMidYMid" width="12" height="14" viewBox="0 0 12 14"><defs><style>.cls-1{fill:#f0f0f0;fill-rule:evenodd}</style></defs><path d="M12.009 9.528c-.095-1.353-.97-2.486-1.476-3.072.07-.17.241-1.157-.419-1.831l.001-.047c0-2.657-1.822-4.569-4.11-4.578-2.287.009-4.11 1.921-4.11 4.578l.001.047c-.66.674-.489 1.661-.419 1.831C.972 7.042.097 8.175.002 9.528c-.017.355.036.873.203 1.104.204.28.764-.057 1.165-.954.111.416.368 1.05.95 1.855-.974.231-1.252 1.227-.924 1.772.231.384.76.699 1.672.699 1.622 0 2.339-.452 2.658-.767a.37.37 0 0 1 .279-.102c.12 0 .214.034.279.102.32.315 1.036.767 2.658.767.912 0 1.441-.315 1.672-.699.328-.545.05-1.541-.924-1.772.582-.805.839-1.439.951-1.855.401.897.96 1.234 1.165.954.167-.231.22-.749.203-1.104z" class="cls-1"/></svg>