<svg xmlns="http://www.w3.org/2000/svg" preserveAspectRatio="xMidYMid" width="16" height="13.031" viewBox="0 0 16 13.031"><defs><style>.cls-1{fill:#f0f0f0;fill-rule:evenodd}</style></defs><path d="M11.851 6.358c-.621-.123-.319-.462-.319-.462s.609-1.021-.121-1.764c-.904-.919-3.102.116-3.102.116-.838.264-.617-.121-.498-.776 0-.774-.259-2.081-2.496-1.31-2.233.778-4.151 3.5-4.151 3.5C-.169 7.47.007 8.868.007 8.868c.332 3.088 3.559 3.936 6.068 4.137 2.639.209 6.204-.925 7.283-3.259 1.081-2.336-.882-3.261-1.507-3.388zM6.27 12.135c-2.62.124-4.741-1.211-4.741-2.989 0-1.78 2.121-3.206 4.741-3.33 2.623-.124 4.746.977 4.746 2.752s-2.123 3.446-4.746 3.567zm-.522-5.149C3.111 7.3 3.417 9.809 3.417 9.809s-.027.796.706 1.201c1.541.85 3.131.335 3.932-.719.803-1.051.332-3.616-2.307-3.305zm-.665 3.525c-.492.058-.89-.231-.89-.649 0-.416.352-.853.844-.906.565-.055.933.275.933.697.002.415-.398.8-.887.858zm1.555-1.346c-.168.127-.373.111-.46-.044a.397.397 0 0 1 .111-.509c.195-.148.397-.104.487.044.086.149.024.377-.138.509zm6.498-3.894a.433.433 0 0 0 .425-.368c.002-.017.005-.031.005-.047.322-2.942-2.372-2.436-2.372-2.436a.435.435 0 0 0-.43.443c0 .243.192.438.43.438 1.934-.435 1.509 1.533 1.509 1.533a.432.432 0 0 0 .433.437zM12.822.136c-.93-.223-1.89-.03-2.158.022-.021.003-.04.022-.059.025-.008.003-.016.011-.016.011a.64.64 0 0 0-.457.619c0 .35.278.639.627.639 0 0 .338-.047.568-.138.227-.094 2.158-.069 3.115 1.566.522 1.194.23 1.992.192 2.122 0 0-.124.311-.124.616 0 .352.278.575.627.575.289 0 .533-.041.603-.539h.003C16.776 2.167 14.488.529 12.822.136z" class="cls-1"/></svg>