<?xml version="1.0" encoding="UTF-8" standalone="no"?>
<svg width="28px" height="27px" viewBox="0 0 28 27" version="1.1" xmlns="http://www.w3.org/2000/svg" xmlns:xlink="http://www.w3.org/1999/xlink">
    <!-- Generator: Sketch 39 (31667) - http://www.bohemiancoding.com/sketch -->
    <title>iconfont-bianji-2</title>
    <desc>Created with Sketch.</desc>
    <defs></defs>
    <g id="业务标签[H]" stroke="none" stroke-width="1" fill="none" fill-rule="evenodd">
        <g id="3.业务标签_配置页" transform="translate(-591.000000, -286.000000)" fill="#272636">
            <g id="编辑模板" transform="translate(388.000000, 265.000000)">
                <g id="button" transform="translate(189.000000, 6.000000)">
                    <g id="edit" transform="translate(0.000000, 6.000000)">
                        <g id="iconfont-bianji-2" transform="translate(14.000000, 9.000000)">
                            <path d="M8.72650074,14.9607289 C8.70837333,14.9838423 8.69003852,15.008196 8.68194963,15.0375942 L7.27336296,20.1853737 C7.19118815,20.4849786 7.27531259,20.8080276 7.49777778,21.0356049 C7.66436741,21.1977703 7.88376296,21.2869158 8.11742815,21.2869158 C8.19454222,21.2869158 8.27182222,21.2776953 8.34798222,21.2575176 L13.4756326,19.8634824 C13.4839289,19.8634824 13.4879526,19.8705942 13.4941333,19.8705942 C13.5529541,19.8705942 13.6107793,19.8492588 13.6545422,19.8046861 L27.3662874,6.13913017 C27.7736356,5.7327657 27.9969304,5.17895559 27.9969304,4.57647933 C27.9969304,3.89378867 27.70656,3.21155283 27.1977481,2.70583002 L25.9027378,1.41293109 C25.3949215,0.905926493 24.709357,0.615831547 24.0249126,0.615831547 C23.4205274,0.615831547 22.8650489,0.83857121 22.4567052,1.24398469 L8.74690963,14.9132619 C8.73280593,14.9261623 8.73670519,14.9455544 8.72650074,14.9607289 L8.72650074,14.9607289 Z M26.0246104,4.80083155 L24.6626904,6.15740582 L22.4547556,3.92157427 L23.7974281,2.5832343 C24.0096889,2.3707075 24.4209363,2.40171822 24.6648059,2.64542113 L25.9606044,3.93836141 C26.0957511,4.07290658 26.1728652,4.2520245 26.1728652,4.42919908 C26.172077,4.57441194 26.1202252,4.70618683 26.0246104,4.80083155 L26.0246104,4.80083155 Z M11.1651556,15.1753645 L21.0593185,5.31250842 L23.2683733,7.54982848 L13.3925037,17.3931271 L11.1651556,15.1753645 L11.1651556,15.1753645 Z M9.36249481,19.1741348 L10.0774281,16.5581118 L11.9847467,18.459441 L9.36249481,19.1741348 L9.36249481,19.1741348 Z" id="Fill-1"></path>
                            <path d="M26.8931081,10.2162542 C26.3741333,10.2162542 25.9484504,10.6370077 25.9465007,11.1612542 L25.9465007,23.9021531 C25.9465007,24.5703308 25.4022222,25.112853 24.7307615,25.112853 L3.10837333,25.112853 C2.43799111,25.112853 1.89147259,24.5703308 1.89147259,23.9021531 L1.89147259,3.1067366 C1.89147259,2.43806279 2.43799111,1.89471363 3.10837333,1.89471363 L17.0344533,1.89471363 C17.5563733,1.89471363 17.9799407,1.47234763 17.9799407,0.951946401 C17.9799407,0.432537519 17.5563733,0.00934456355 17.0344533,0.00934456355 L2.96414222,0.00934456355 C1.32997926,0.00934456355 0,1.33412251 0,2.9639219 L0,24.0459188 C0,25.6758836 1.32997926,27 2.96414222,27 L24.8738311,27 C26.5092385,27 27.8385956,25.6758836 27.8385956,24.0459188 L27.8385956,11.1553002 C27.8365215,10.6370077 27.4119585,10.2162542 26.8931081,10.2162542" id="Fill-2"></path>
                        </g>
                    </g>
                </g>
            </g>
        </g>
    </g>
</svg>